# xmcd CD database file
#
# Track frame offsets:
#	150
#	16202
#	40207
#	60282
#	81733
#
# Disc length: 1525 seconds
#
# Revision: 7
# Processed by: cddbd v1.5.2PL0 Copyright (c) Steve Scherf et al.
# Submitted via: CDex 1.70beta3
#
DISCID=3605f305
DTITLE=コブクロ - SATURDAY　8:PM
DYEAR=1999
DGENRE=JPop
TTITLE0=ボクノイバショ
TTITLE1=夢唄
TTITLE2=ストリートのテーマ
TTITLE3=虹の真下
TTITLE4=遠くで‥
EXTD=YEAR: 1999
EXTT0=
EXTT1=
EXTT2=
EXTT3=
EXTT4=
PLAYORDER=
